<mxfile host="65bd71144e">
    <diagram id="D6tH83auqqzQFlk_k505" name="Page-1">
        <mxGraphModel dx="933" dy="1820" grid="1" gridSize="10" guides="1" tooltips="1" connect="1" arrows="1" fold="1" page="1" pageScale="1" pageWidth="850" pageHeight="1100" math="0" shadow="0">
            <root>
                <mxCell id="0"/>
                <mxCell id="1" parent="0"/>
                <mxCell id="2" value="requested_page = getPageFromGet" style="rounded=0;whiteSpace=wrap;html=1;" parent="1" vertex="1">
                    <mxGeometry x="108" y="117.5" width="312" height="40" as="geometry"/>
                </mxCell>
                <mxCell id="3" value="return requested_page" style="rounded=0;whiteSpace=wrap;html=1;" parent="1" vertex="1">
                    <mxGeometry x="108" y="157.5" width="630" height="40" as="geometry"/>
                </mxCell>
                <mxCell id="4" value="showDocumentStart" style="rounded=0;whiteSpace=wrap;html=1;" parent="1" vertex="1">
                    <mxGeometry x="110" y="240" width="312" height="40" as="geometry"/>
                </mxCell>
                <mxCell id="5" value="showHeadSection" style="rounded=0;whiteSpace=wrap;html=1;" parent="1" vertex="1">
                    <mxGeometry x="110" y="280" width="312" height="40" as="geometry"/>
                </mxCell>
                <mxCell id="6" value="showBodySection" style="rounded=0;whiteSpace=wrap;html=1;" parent="1" vertex="1">
                    <mxGeometry x="110" y="320" width="312" height="40.31" as="geometry"/>
                </mxCell>
                <mxCell id="7" value="showDocumentEnd" style="rounded=0;whiteSpace=wrap;html=1;" parent="1" vertex="1">
                    <mxGeometry x="110" y="360.30999999999995" width="312" height="40" as="geometry"/>
                </mxCell>
                <mxCell id="9" value="showBodyStart" style="rounded=0;whiteSpace=wrap;html=1;" parent="1" vertex="1">
                    <mxGeometry x="108" y="670" width="312" height="40" as="geometry"/>
                </mxCell>
                <mxCell id="10" value="showHeader" style="rounded=0;whiteSpace=wrap;html=1;" parent="1" vertex="1">
                    <mxGeometry x="108" y="710" width="312" height="40" as="geometry"/>
                </mxCell>
                <mxCell id="11" value="showContent" style="rounded=0;whiteSpace=wrap;html=1;" parent="1" vertex="1">
                    <mxGeometry x="108" y="750" width="312" height="40" as="geometry"/>
                </mxCell>
                <mxCell id="16" value="PSD: showResponsePage" style="text;html=1;strokeColor=none;fillColor=none;align=center;verticalAlign=middle;whiteSpace=wrap;rounded=0;" parent="1" vertex="1">
                    <mxGeometry x="110" y="210" width="150" height="30" as="geometry"/>
                </mxCell>
                <mxCell id="17" value="PSD: showBodySection" style="text;html=1;strokeColor=none;fillColor=none;align=center;verticalAlign=middle;whiteSpace=wrap;rounded=0;" parent="1" vertex="1">
                    <mxGeometry x="108" y="640" width="140" height="30" as="geometry"/>
                </mxCell>
                <mxCell id="19" value="&amp;nbsp;TRUE&lt;span style=&quot;white-space: pre;&quot;&gt;&#9;&lt;/span&gt;&lt;span style=&quot;white-space: pre;&quot;&gt;&#9;&lt;/span&gt;&lt;span style=&quot;white-space: pre;&quot;&gt;&#9;&lt;/span&gt;&lt;span style=&quot;white-space: pre;&quot;&gt;&#9;&lt;/span&gt;&lt;span style=&quot;white-space: pre;&quot;&gt;&#9;&lt;/span&gt;&lt;span style=&quot;white-space: pre;&quot;&gt;&#9;&lt;/span&gt;&lt;span style=&quot;white-space: pre;&quot;&gt;&#9;&lt;/span&gt;&lt;span style=&quot;white-space: pre;&quot;&gt;&#9;&lt;/span&gt;&lt;span style=&quot;white-space: pre;&quot;&gt;&#9;&lt;/span&gt;&lt;span style=&quot;white-space: pre;&quot;&gt;&#9;&lt;/span&gt;&lt;span style=&quot;white-space: pre;&quot;&gt;&#9;&lt;/span&gt;&lt;span style=&quot;white-space: pre;&quot;&gt;&#9;&lt;/span&gt;&lt;span style=&quot;white-space: pre;&quot;&gt;&#9;&lt;/span&gt;&lt;span style=&quot;white-space: pre;&quot;&gt;&#9;&lt;/span&gt;&lt;span style=&quot;white-space: pre;&quot;&gt;&#9;&lt;/span&gt;&lt;span style=&quot;white-space: pre;&quot;&gt;&#9;&lt;/span&gt;&lt;span style=&quot;white-space: pre;&quot;&gt;&#9;&lt;/span&gt;&lt;span style=&quot;white-space: pre;&quot;&gt;&#9;&lt;/span&gt;&lt;span style=&quot;white-space: pre;&quot;&gt;&#9;&lt;/span&gt;&lt;span style=&quot;white-space: pre;&quot;&gt;&#9;&lt;/span&gt;&lt;span style=&quot;white-space: pre;&quot;&gt;&#9;&lt;/span&gt;FALSE" style="rounded=0;whiteSpace=wrap;html=1;align=left;" parent="1" vertex="1">
                    <mxGeometry x="108" y="-22.5" width="635" height="140" as="geometry"/>
                </mxCell>
                <mxCell id="20" value="&lt;div style=&quot;&quot;&gt;request_type == 'GET' ?&lt;/div&gt;" style="triangle;whiteSpace=wrap;html=1;rotation=90;align=center;verticalAlign=middle;horizontal=0;" parent="1" vertex="1">
                    <mxGeometry x="357.07" y="-270" width="136.87" height="635" as="geometry"/>
                </mxCell>
                <mxCell id="25" value="getRequestedPage" style="rounded=0;whiteSpace=wrap;html=1;" vertex="1" parent="1">
                    <mxGeometry x="108" y="-220" width="312" height="40" as="geometry"/>
                </mxCell>
                <mxCell id="26" value="showResponsePage" style="rounded=0;whiteSpace=wrap;html=1;" vertex="1" parent="1">
                    <mxGeometry x="108" y="-180" width="312" height="40" as="geometry"/>
                </mxCell>
                <mxCell id="31" value="PSD: showContent" style="text;html=1;strokeColor=none;fillColor=none;align=center;verticalAlign=middle;whiteSpace=wrap;rounded=0;" vertex="1" parent="1">
                    <mxGeometry x="108" y="900" width="110" height="30" as="geometry"/>
                </mxCell>
                <mxCell id="32" value="&lt;span style=&quot;white-space: pre;&quot;&gt;&#9;&lt;/span&gt;home&lt;span style=&quot;white-space: pre;&quot;&gt;&#9;&lt;/span&gt;&lt;span style=&quot;white-space: pre;&quot;&gt;&#9;&lt;span style=&quot;white-space: pre;&quot;&gt;&#9;&lt;span style=&quot;white-space: pre;&quot;&gt;&#9;&lt;/span&gt;&lt;/span&gt;&lt;/span&gt;about&lt;span style=&quot;white-space: pre;&quot;&gt;&#9;&lt;/span&gt;&lt;span style=&quot;white-space: pre;&quot;&gt;&#9;&lt;/span&gt;&lt;span style=&quot;white-space: pre;&quot;&gt;&#9;&lt;/span&gt;&amp;nbsp; &amp;nbsp; &amp;nbsp;&lt;span style=&quot;white-space: pre;&quot;&gt;&#9;&lt;/span&gt;contact&amp;nbsp; &amp;nbsp; &amp;nbsp; &amp;nbsp;&lt;span style=&quot;white-space: pre;&quot;&gt;&#9;&lt;span style=&quot;white-space: pre;&quot;&gt;&#9;&lt;/span&gt;&lt;span style=&quot;white-space: pre;&quot;&gt;&#9;&lt;/span&gt;&lt;/span&gt;anders" style="rounded=0;whiteSpace=wrap;html=1;verticalAlign=bottom;align=left;" vertex="1" parent="1">
                    <mxGeometry x="108" y="930" width="510" height="90" as="geometry"/>
                </mxCell>
                <mxCell id="38" value="showHomeContent" style="rounded=0;whiteSpace=wrap;html=1;" vertex="1" parent="1">
                    <mxGeometry x="108" y="1020" width="130" height="60" as="geometry"/>
                </mxCell>
                <mxCell id="39" value="showAboutContent" style="rounded=0;whiteSpace=wrap;html=1;" vertex="1" parent="1">
                    <mxGeometry x="228" y="1020" width="130" height="60" as="geometry"/>
                </mxCell>
                <mxCell id="40" value="showContactContent" style="rounded=0;whiteSpace=wrap;html=1;" vertex="1" parent="1">
                    <mxGeometry x="358" y="1020" width="130" height="60" as="geometry"/>
                </mxCell>
                <mxCell id="42" value="switch(page)" style="triangle;whiteSpace=wrap;html=1;rotation=90;horizontal=0;" vertex="1" parent="1">
                    <mxGeometry x="322.07" y="725.94" width="82.5" height="490.63" as="geometry"/>
                </mxCell>
                <mxCell id="43" value="pageNotFound" style="rounded=0;whiteSpace=wrap;html=1;" vertex="1" parent="1">
                    <mxGeometry x="488" y="1020" width="130" height="60" as="geometry"/>
                </mxCell>
                <mxCell id="44" value="request_type = getRequestType" style="rounded=0;whiteSpace=wrap;html=1;" vertex="1" parent="1">
                    <mxGeometry x="108" y="-82" width="630" height="60" as="geometry"/>
                </mxCell>
                <mxCell id="45" value="requested_page = getPageFromPost" style="rounded=0;whiteSpace=wrap;html=1;" vertex="1" parent="1">
                    <mxGeometry x="431" y="117.5" width="312" height="40" as="geometry"/>
                </mxCell>
                <mxCell id="46" value="showFooter" style="rounded=0;whiteSpace=wrap;html=1;" vertex="1" parent="1">
                    <mxGeometry x="108" y="790" width="312" height="40" as="geometry"/>
                </mxCell>
                <mxCell id="47" value="showBodyEnd" style="rounded=0;whiteSpace=wrap;html=1;" vertex="1" parent="1">
                    <mxGeometry x="108" y="830" width="312" height="40" as="geometry"/>
                </mxCell>
                <mxCell id="48" value="PSD: getRequestedPage" style="text;html=1;strokeColor=none;fillColor=none;align=center;verticalAlign=middle;whiteSpace=wrap;rounded=0;" vertex="1" parent="1">
                    <mxGeometry x="110" y="-112" width="140" height="30" as="geometry"/>
                </mxCell>
                <mxCell id="50" value="showHeadStart" style="rounded=0;whiteSpace=wrap;html=1;" vertex="1" parent="1">
                    <mxGeometry x="108" y="440" width="312" height="40" as="geometry"/>
                </mxCell>
                <mxCell id="51" value="showMetaCharset" style="rounded=0;whiteSpace=wrap;html=1;" vertex="1" parent="1">
                    <mxGeometry x="108" y="480" width="312" height="40" as="geometry"/>
                </mxCell>
                <mxCell id="52" value="showTitle" style="rounded=0;whiteSpace=wrap;html=1;" vertex="1" parent="1">
                    <mxGeometry x="108" y="520" width="312" height="40" as="geometry"/>
                </mxCell>
                <mxCell id="53" value="PSD: showHeadSection" style="text;html=1;strokeColor=none;fillColor=none;align=center;verticalAlign=middle;whiteSpace=wrap;rounded=0;" vertex="1" parent="1">
                    <mxGeometry x="108" y="410" width="140" height="30" as="geometry"/>
                </mxCell>
                <mxCell id="54" value="showStyleSheet" style="rounded=0;whiteSpace=wrap;html=1;" vertex="1" parent="1">
                    <mxGeometry x="108" y="560" width="312" height="40" as="geometry"/>
                </mxCell>
                <mxCell id="55" value="showHeadEnd" style="rounded=0;whiteSpace=wrap;html=1;" vertex="1" parent="1">
                    <mxGeometry x="108" y="600" width="312" height="40" as="geometry"/>
                </mxCell>
            </root>
        </mxGraphModel>
    </diagram>
</mxfile>